<?xml version="1.0" encoding="UTF-8" standalone="no"?>
<!DOCTYPE svg PUBLIC "-//W3C//DTD SVG 1.1//EN"
 "http://www.w3.org/Graphics/SVG/1.1/DTD/svg11.dtd">
<!-- Generated by graphviz version 2.40.1 (20161225.0304)
 -->
<!-- Title: UmlClassDiagram Pages: 1 -->
<svg width="2686pt" height="1335pt"
 viewBox="0.00 0.00 2686.36 1335.40" xmlns="http://www.w3.org/2000/svg" xmlns:xlink="http://www.w3.org/1999/xlink">
<g id="graph0" class="graph" transform="scale(1 1) rotate(0) translate(4 1331.4)">
<title>UmlClassDiagram</title>
<polygon fill="#ffffff" stroke="transparent" points="-4,4 -4,-1331.4 2682.3645,-1331.4 2682.3645,4 -4,4"/>
<!-- 0 -->
<g id="node1" class="node">
<title>0</title>
<polygon fill="#f2f2f2" stroke="#000000" points="0,-805.1 0,-1047.5 1156.4442,-1047.5 1156.4442,-805.1 0,-805.1"/>
<text text-anchor="middle" x="578.2221" y="-1030.9" font-family="Times,serif" font-size="14.00" fill="#000000">ConopsManager</text>
<polyline fill="none" stroke="#000000" points="0,-1022.7 1156.4442,-1022.7 "/>
<text text-anchor="start" x="8" y="-1006.1" font-family="Times,serif" font-size="14.00" fill="#000000">Private:</text>
<text text-anchor="start" x="8" y="-989.3" font-family="Times,serif" font-size="14.00" fill="#000000"> &#160;&#160;simpleConopsList: SimpleConops[]</text>
<text text-anchor="start" x="8" y="-972.5" font-family="Times,serif" font-size="14.00" fill="#000000"> &#160;&#160;accessControl: IAccessControl</text>
<polyline fill="none" stroke="#000000" points="0,-964.3 1156.4442,-964.3 "/>
<text text-anchor="start" x="8" y="-947.7" font-family="Times,serif" font-size="14.00" fill="#000000">External:</text>
<text text-anchor="start" x="8" y="-930.9" font-family="Times,serif" font-size="14.00" fill="#000000"> &#160;&#160;&#160;addConops(_name: string, _startingPoint: string, _endPoint: string, _crossRoad: string, _exclusionZone: string, _entities: string[], _airRiskType: uint256[], _grc: uint8, _arc: uint8): (conopsID: uint256)</text>
<text text-anchor="start" x="8" y="-914.1" font-family="Times,serif" font-size="14.00" fill="#000000"> &#160;&#160;&#160;disable(_conopsID: uint256)</text>
<text text-anchor="start" x="8" y="-897.3" font-family="Times,serif" font-size="14.00" fill="#000000"> &#160;&#160;&#160;enable(_conopsID: uint256)</text>
<text text-anchor="start" x="8" y="-880.5" font-family="Times,serif" font-size="14.00" fill="#000000"> &#160;&#160;&#160;viewConops(_conopsID: uint256): SimpleConops</text>
<text text-anchor="start" x="8" y="-863.7" font-family="Times,serif" font-size="14.00" fill="#000000"> &#160;&#160;&#160;viewAllConops(): SimpleConops[]</text>
<text text-anchor="start" x="8" y="-846.9" font-family="Times,serif" font-size="14.00" fill="#000000">Public:</text>
<text text-anchor="start" x="8" y="-830.1" font-family="Times,serif" font-size="14.00" fill="#000000"> &#160;&#160;&#160;&lt;&lt;modifier&gt;&gt; onlyRole(role: string)</text>
<text text-anchor="start" x="8" y="-813.3" font-family="Times,serif" font-size="14.00" fill="#000000"> &#160;&#160;&#160;constructor(accessControlAddress: address)</text>
</g>
<!-- 6 -->
<g id="node15" class="node">
<title>6</title>
<polygon fill="#f2f2f2" stroke="#000000" points="835.25,-1084.5 835.25,-1326.9 1981.1942,-1326.9 1981.1942,-1084.5 835.25,-1084.5"/>
<text text-anchor="middle" x="1408.2221" y="-1310.3" font-family="Times,serif" font-size="14.00" fill="#000000">&lt;&lt;Interface&gt;&gt;</text>
<text text-anchor="middle" x="1408.2221" y="-1293.5" font-family="Times,serif" font-size="14.00" fill="#000000">IConopsMaster</text>
<polyline fill="none" stroke="#000000" points="835.25,-1285.3 1981.1942,-1285.3 "/>
<text text-anchor="middle" x="1408.2221" y="-1268.7" font-family="Times,serif" font-size="14.00" fill="#000000"> </text>
<polyline fill="none" stroke="#000000" points="835.25,-1260.5 1981.1942,-1260.5 "/>
<text text-anchor="start" x="843.25" y="-1243.9" font-family="Times,serif" font-size="14.00" fill="#000000">External:</text>
<text text-anchor="start" x="843.25" y="-1227.1" font-family="Times,serif" font-size="14.00" fill="#000000"> &#160;&#160;&#160;&#160;addConops(_name: string, _startingPoint: string, _endPoint: string, _crossRoad: string, _exclusionZone: string, _entities: string[], _airRiskType: uint256[], _grc: uint8, _arc: uint8): (_conopsID: uint)</text>
<text text-anchor="start" x="843.25" y="-1210.3" font-family="Times,serif" font-size="14.00" fill="#000000"> &#160;&#160;&#160;&#160;disable(_conopsID: uint)</text>
<text text-anchor="start" x="843.25" y="-1193.5" font-family="Times,serif" font-size="14.00" fill="#000000"> &#160;&#160;&#160;&#160;enable(_conopsID: uint)</text>
<text text-anchor="start" x="843.25" y="-1176.7" font-family="Times,serif" font-size="14.00" fill="#000000"> &#160;&#160;&#160;&#160;viewConops(_conopsID: uint): SimpleConops</text>
<text text-anchor="start" x="843.25" y="-1159.9" font-family="Times,serif" font-size="14.00" fill="#000000"> &#160;&#160;&#160;&#160;viewAllConops(): SimpleConops[]</text>
<text text-anchor="start" x="843.25" y="-1143.1" font-family="Times,serif" font-size="14.00" fill="#000000">Public:</text>
<text text-anchor="start" x="843.25" y="-1126.3" font-family="Times,serif" font-size="14.00" fill="#000000"> &#160;&#160;&#160;&lt;&lt;event&gt;&gt; ConopsCreated(_conopsID: uint256, _name: string)</text>
<text text-anchor="start" x="843.25" y="-1109.5" font-family="Times,serif" font-size="14.00" fill="#000000"> &#160;&#160;&#160;&lt;&lt;event&gt;&gt; ConopsSuspended(_conopsID: uint256)</text>
<text text-anchor="start" x="843.25" y="-1092.7" font-family="Times,serif" font-size="14.00" fill="#000000"> &#160;&#160;&#160;&lt;&lt;event&gt;&gt; ConopsActivated(_conopsID: uint256)</text>
</g>
<!-- 0&#45;&gt;6 -->
<g id="edge16" class="edge">
<title>0&#45;&gt;6</title>
<path fill="none" stroke="#000000" stroke-dasharray="5,2" d="M938.3495,-1047.5284C965.1672,-1056.556 992.2962,-1065.6883 1019.2777,-1074.771"/>
<polygon fill="none" stroke="#000000" points="1016.114,-1084.7849 1047.8962,-1084.4048 1022.8138,-1064.8823 1016.114,-1084.7849"/>
</g>
<!-- 1 -->
<g id="node2" class="node">
<title>1</title>
<polygon fill="#f2f2f2" stroke="#000000" points="1345.4492,-.5 1345.4492,-276.5 1876.995,-276.5 1876.995,-.5 1345.4492,-.5"/>
<text text-anchor="middle" x="1611.2221" y="-259.9" font-family="Times,serif" font-size="14.00" fill="#000000">DeliveryMaster</text>
<polyline fill="none" stroke="#000000" points="1345.4492,-251.7 1876.995,-251.7 "/>
<text text-anchor="start" x="1353.4492" y="-235.1" font-family="Times,serif" font-size="14.00" fill="#000000">Private:</text>
<text text-anchor="start" x="1353.4492" y="-218.3" font-family="Times,serif" font-size="14.00" fill="#000000"> &#160;&#160;deliveryList: Delivery[]</text>
<text text-anchor="start" x="1353.4492" y="-201.5" font-family="Times,serif" font-size="14.00" fill="#000000"> &#160;&#160;accessControl: IAccessControl</text>
<text text-anchor="start" x="1353.4492" y="-184.7" font-family="Times,serif" font-size="14.00" fill="#000000"> &#160;&#160;commercialData: CommercialData</text>
<polyline fill="none" stroke="#000000" points="1345.4492,-176.5 1876.995,-176.5 "/>
<text text-anchor="start" x="1353.4492" y="-159.9" font-family="Times,serif" font-size="14.00" fill="#000000">Internal:</text>
<text text-anchor="start" x="1353.4492" y="-143.1" font-family="Times,serif" font-size="14.00" fill="#000000"> &#160;&#160;&#160;_getCommercialData(_client: string, _price: uint256, _hubID: uint256): CommercialData</text>
<text text-anchor="start" x="1353.4492" y="-126.3" font-family="Times,serif" font-size="14.00" fill="#000000"> &#160;&#160;&#160;_newDelivery(_delivery: Delivery)</text>
<text text-anchor="start" x="1353.4492" y="-109.5" font-family="Times,serif" font-size="14.00" fill="#000000">External:</text>
<text text-anchor="start" x="1353.4492" y="-92.7" font-family="Times,serif" font-size="14.00" fill="#000000"> &#160;&#160;&#160;newDelivery(_client: string, _price: uint256, _hubID: uint256)</text>
<text text-anchor="start" x="1353.4492" y="-75.9" font-family="Times,serif" font-size="14.00" fill="#000000"> &#160;&#160;&#160;getDelivery(_deliveryID: uint256): Delivery</text>
<text text-anchor="start" x="1353.4492" y="-59.1" font-family="Times,serif" font-size="14.00" fill="#000000"> &#160;&#160;&#160;setDeliveryState(_deliveryID: uint256, _deliveryState: DeliveryState): bool</text>
<text text-anchor="start" x="1353.4492" y="-42.3" font-family="Times,serif" font-size="14.00" fill="#000000">Public:</text>
<text text-anchor="start" x="1353.4492" y="-25.5" font-family="Times,serif" font-size="14.00" fill="#000000"> &#160;&#160;&#160;&lt;&lt;modifier&gt;&gt; onlyRole(_role: bytes32)</text>
<text text-anchor="start" x="1353.4492" y="-8.7" font-family="Times,serif" font-size="14.00" fill="#000000"> &#160;&#160;&#160;constructor(accessControlAddress: address)</text>
</g>
<!-- 7 -->
<g id="node19" class="node">
<title>7</title>
<polygon fill="#f2f2f2" stroke="#000000" points="1812.3931,-372.3 1812.3931,-513.9 2270.0511,-513.9 2270.0511,-372.3 1812.3931,-372.3"/>
<text text-anchor="middle" x="2041.2221" y="-497.3" font-family="Times,serif" font-size="14.00" fill="#000000">&lt;&lt;Interface&gt;&gt;</text>
<text text-anchor="middle" x="2041.2221" y="-480.5" font-family="Times,serif" font-size="14.00" fill="#000000">IDeliveryMaster</text>
<polyline fill="none" stroke="#000000" points="1812.3931,-472.3 2270.0511,-472.3 "/>
<text text-anchor="middle" x="2041.2221" y="-455.7" font-family="Times,serif" font-size="14.00" fill="#000000"> </text>
<polyline fill="none" stroke="#000000" points="1812.3931,-447.5 2270.0511,-447.5 "/>
<text text-anchor="start" x="1820.3931" y="-430.9" font-family="Times,serif" font-size="14.00" fill="#000000">External:</text>
<text text-anchor="start" x="1820.3931" y="-414.1" font-family="Times,serif" font-size="14.00" fill="#000000"> &#160;&#160;&#160;&#160;newDelivery(_client: string, _price: uint256, _hubID: uint256)</text>
<text text-anchor="start" x="1820.3931" y="-397.3" font-family="Times,serif" font-size="14.00" fill="#000000"> &#160;&#160;&#160;&#160;getDelivery(_deliveryID: uint256): Delivery</text>
<text text-anchor="start" x="1820.3931" y="-380.5" font-family="Times,serif" font-size="14.00" fill="#000000"> &#160;&#160;&#160;&#160;setDeliveryState(_deliveryID: uint256, _deliveryState: DeliveryState): bool</text>
</g>
<!-- 1&#45;&gt;7 -->
<g id="edge17" class="edge">
<title>1&#45;&gt;7</title>
<path fill="none" stroke="#000000" stroke-dasharray="5,2" d="M1806.0921,-276.5405C1843.5513,-303.0755 1881.8328,-330.193 1916.3343,-354.633"/>
<polygon fill="none" stroke="#000000" points="1910.4669,-363.3442 1941.0167,-372.1173 1922.6058,-346.208 1910.4669,-363.3442"/>
</g>
<!-- 2 -->
<g id="node3" class="node">
<title>2</title>
<polygon fill="#f2f2f2" stroke="#000000" points="413.3625,-609.7 413.3625,-768.1 1145.0817,-768.1 1145.0817,-609.7 413.3625,-609.7"/>
<text text-anchor="middle" x="779.2221" y="-751.5" font-family="Times,serif" font-size="14.00" fill="#000000">DroneDelivery</text>
<polyline fill="none" stroke="#000000" points="413.3625,-743.3 1145.0817,-743.3 "/>
<text text-anchor="start" x="421.3625" y="-726.7" font-family="Times,serif" font-size="14.00" fill="#000000">Private:</text>
<text text-anchor="start" x="421.3625" y="-709.9" font-family="Times,serif" font-size="14.00" fill="#000000"> &#160;&#160;deliveryId: uint256</text>
<text text-anchor="start" x="421.3625" y="-693.1" font-family="Times,serif" font-size="14.00" fill="#000000"> &#160;&#160;deliveryManager: address</text>
<polyline fill="none" stroke="#000000" points="413.3625,-684.9 1145.0817,-684.9 "/>
<text text-anchor="start" x="421.3625" y="-668.3" font-family="Times,serif" font-size="14.00" fill="#000000">External:</text>
<text text-anchor="start" x="421.3625" y="-651.5" font-family="Times,serif" font-size="14.00" fill="#000000"> &#160;&#160;&#160;getDeliveryId(): uint256</text>
<text text-anchor="start" x="421.3625" y="-634.7" font-family="Times,serif" font-size="14.00" fill="#000000">Public:</text>
<text text-anchor="start" x="421.3625" y="-617.9" font-family="Times,serif" font-size="14.00" fill="#000000"> &#160;&#160;&#160;constructor(_deliveryManager: address, _deliveryId: uint256, _conopsManager: address, data: StarwingsDataLib.FlightData)</text>
</g>
<!-- 3 -->
<g id="node4" class="node">
<title>3</title>
<polygon fill="#f2f2f2" stroke="#000000" points="1616.709,-805.1 1616.709,-1047.5 2067.7352,-1047.5 2067.7352,-805.1 1616.709,-805.1"/>
<text text-anchor="middle" x="1842.2221" y="-1030.9" font-family="Times,serif" font-size="14.00" fill="#000000">DroneFlight</text>
<polyline fill="none" stroke="#000000" points="1616.709,-1022.7 2067.7352,-1022.7 "/>
<text text-anchor="start" x="1624.709" y="-1006.1" font-family="Times,serif" font-size="14.00" fill="#000000">Private:</text>
<text text-anchor="start" x="1624.709" y="-989.3" font-family="Times,serif" font-size="14.00" fill="#000000"> &#160;&#160;conopsManager: IConopsMaster</text>
<text text-anchor="start" x="1624.709" y="-972.5" font-family="Times,serif" font-size="14.00" fill="#000000"> &#160;&#160;engineCheck: bool</text>
<text text-anchor="start" x="1624.709" y="-955.7" font-family="Times,serif" font-size="14.00" fill="#000000"> &#160;&#160;batteryCheck: bool</text>
<text text-anchor="start" x="1624.709" y="-938.9" font-family="Times,serif" font-size="14.00" fill="#000000"> &#160;&#160;controlStationCheck: bool</text>
<text text-anchor="start" x="1624.709" y="-922.1" font-family="Times,serif" font-size="14.00" fill="#000000"> &#160;&#160;datas: StarwingsDataLib.FlightData</text>
<text text-anchor="start" x="1624.709" y="-905.3" font-family="Times,serif" font-size="14.00" fill="#000000"> &#160;&#160;flightState: FlightState</text>
<text text-anchor="start" x="1624.709" y="-888.5" font-family="Times,serif" font-size="14.00" fill="#000000"> &#160;&#160;riskEvent: Event[]</text>
<text text-anchor="start" x="1624.709" y="-871.7" font-family="Times,serif" font-size="14.00" fill="#000000"> &#160;&#160;checkpoints: Checkpoint[]</text>
<text text-anchor="start" x="1624.709" y="-854.9" font-family="Times,serif" font-size="14.00" fill="#000000"> &#160;&#160;airRisks: AirRisk[]</text>
<polyline fill="none" stroke="#000000" points="1616.709,-846.7 2067.7352,-846.7 "/>
<text text-anchor="start" x="1624.709" y="-830.1" font-family="Times,serif" font-size="14.00" fill="#000000">Public:</text>
<text text-anchor="start" x="1624.709" y="-813.3" font-family="Times,serif" font-size="14.00" fill="#000000"> &#160;&#160;&#160;constructor(_conopsManager: address, data: StarwingsDataLib.FlightData)</text>
</g>
<!-- 2&#45;&gt;3 -->
<g id="edge18" class="edge">
<title>2&#45;&gt;3</title>
<path fill="none" stroke="#000000" d="M1145.3118,-767.4309C1147.9572,-767.8279 1150.5942,-768.2177 1153.2221,-768.6 1344.0635,-796.3621 1407.0377,-753.3365 1587.4328,-799.1908"/>
<polygon fill="none" stroke="#000000" points="1584.7866,-809.3524 1616.4888,-807.0666 1590.2806,-789.0838 1584.7866,-809.3524"/>
</g>
<!-- 3&#45;&gt;6 -->
<g id="edge20" class="edge">
<title>3&#45;&gt;6</title>
<path fill="none" stroke="#000000" d="M1653.7568,-1047.6299C1637.5883,-1058.0389 1621.2046,-1068.5864 1604.9734,-1079.0357"/>
<polygon fill="#000000" stroke="#000000" points="1603.015,-1076.1338 1596.5013,-1084.4898 1606.8042,-1082.0196 1603.015,-1076.1338"/>
</g>
<!-- 9 -->
<g id="node24" class="node">
<title>9</title>
<polygon fill="#f2f2f2" stroke="#000000" points="2315.91,-1109.7 2315.91,-1301.7 2532.5342,-1301.7 2532.5342,-1109.7 2315.91,-1109.7"/>
<text text-anchor="middle" x="2424.2221" y="-1285.1" font-family="Times,serif" font-size="14.00" fill="#000000">&lt;&lt;Library&gt;&gt;</text>
<text text-anchor="middle" x="2424.2221" y="-1268.3" font-family="Times,serif" font-size="14.00" fill="#000000">StarwingsDataLib</text>
<polyline fill="none" stroke="#000000" points="2315.91,-1260.1 2532.5342,-1260.1 "/>
<text text-anchor="start" x="2323.91" y="-1243.5" font-family="Times,serif" font-size="14.00" fill="#000000">Public:</text>
<text text-anchor="start" x="2323.91" y="-1226.7" font-family="Times,serif" font-size="14.00" fill="#000000"> &#160;&#160;ADMIN_ROLE: bytes32</text>
<text text-anchor="start" x="2323.91" y="-1209.9" font-family="Times,serif" font-size="14.00" fill="#000000"> &#160;&#160;PILOT_ROLE: bytes32</text>
<text text-anchor="start" x="2323.91" y="-1193.1" font-family="Times,serif" font-size="14.00" fill="#000000"> &#160;&#160;DRONE_ROLE: bytes32</text>
<text text-anchor="start" x="2323.91" y="-1176.3" font-family="Times,serif" font-size="14.00" fill="#000000"> &#160;&#160;EXTERNAL_LEVEL_1: bytes32</text>
<text text-anchor="start" x="2323.91" y="-1159.5" font-family="Times,serif" font-size="14.00" fill="#000000"> &#160;&#160;EXTERNAL_LEVEL_2: bytes32</text>
<text text-anchor="start" x="2323.91" y="-1142.7" font-family="Times,serif" font-size="14.00" fill="#000000"> &#160;&#160;EXTERNAL_LEVEL_3: bytes32</text>
<polyline fill="none" stroke="#000000" points="2315.91,-1134.5 2532.5342,-1134.5 "/>
<text text-anchor="middle" x="2424.2221" y="-1117.9" font-family="Times,serif" font-size="14.00" fill="#000000"> </text>
</g>
<!-- 3&#45;&gt;9 -->
<g id="edge19" class="edge">
<title>3&#45;&gt;9</title>
<path fill="none" stroke="#000000" d="M2068.0715,-1034.7232C2149.5656,-1073.846 2238.2457,-1116.4185 2306.73,-1149.2957"/>
<polygon fill="#000000" stroke="#000000" points="2305.3,-1152.4916 2315.8298,-1153.6642 2308.3295,-1146.1811 2305.3,-1152.4916"/>
</g>
<!-- 3struct0 -->
<g id="node5" class="node">
<title>3struct0</title>
<polygon fill="#f2f2f2" stroke="#000000" points="1431.7021,-647.3 1431.7021,-730.5 1550.7421,-730.5 1550.7421,-647.3 1431.7021,-647.3"/>
<text text-anchor="middle" x="1491.2221" y="-713.9" font-family="Times,serif" font-size="14.00" fill="#000000">&lt;&lt;struct&gt;&gt;</text>
<text text-anchor="middle" x="1491.2221" y="-697.1" font-family="Times,serif" font-size="14.00" fill="#000000">Event</text>
<polyline fill="none" stroke="#000000" points="1431.7021,-688.9 1550.7421,-688.9 "/>
<text text-anchor="start" x="1439.7021" y="-672.3" font-family="Times,serif" font-size="14.00" fill="#000000">dateTime: uint256</text>
<text text-anchor="start" x="1439.7021" y="-655.5" font-family="Times,serif" font-size="14.00" fill="#000000">risk: RiskType</text>
</g>
<!-- 3struct0&#45;&gt;3 -->
<g id="edge1" class="edge">
<title>3struct0&#45;&gt;3</title>
<path fill="none" stroke="#000000" d="M1522.2197,-730.8251C1533.046,-743.8501 1545.8562,-757.6489 1559.2221,-768.6 1569.6899,-777.1766 1586.2215,-788.1008 1606.1675,-800.1871"/>
<polygon fill="#000000" stroke="#000000" points="1606.2607,-800.2429 1613.4633,-799.8929 1616.5567,-806.4068 1609.3541,-806.7569 1606.2607,-800.2429"/>
</g>
<!-- 3struct1 -->
<g id="node6" class="node">
<title>3struct1</title>
<polygon fill="#f2f2f2" stroke="#000000" points="1568.693,-647.3 1568.693,-730.5 1687.7512,-730.5 1687.7512,-647.3 1568.693,-647.3"/>
<text text-anchor="middle" x="1628.2221" y="-713.9" font-family="Times,serif" font-size="14.00" fill="#000000">&lt;&lt;struct&gt;&gt;</text>
<text text-anchor="middle" x="1628.2221" y="-697.1" font-family="Times,serif" font-size="14.00" fill="#000000">Coordinate</text>
<polyline fill="none" stroke="#000000" points="1568.693,-688.9 1687.7512,-688.9 "/>
<text text-anchor="start" x="1576.693" y="-672.3" font-family="Times,serif" font-size="14.00" fill="#000000">latitude: uint256</text>
<text text-anchor="start" x="1576.693" y="-655.5" font-family="Times,serif" font-size="14.00" fill="#000000">longitude: uint256</text>
</g>
<!-- 3struct1&#45;&gt;3 -->
<g id="edge2" class="edge">
<title>3struct1&#45;&gt;3</title>
<path fill="none" stroke="#000000" d="M1664.1572,-730.8826C1674.7339,-743.1099 1686.3777,-756.446 1697.2221,-768.6 1705.1148,-777.4459 1713.29,-786.5338 1721.555,-795.6663"/>
<polygon fill="#000000" stroke="#000000" points="1721.7821,-795.9167 1728.7756,-797.6746 1729.8428,-804.8063 1722.8492,-803.0484 1721.7821,-795.9167"/>
</g>
<!-- 3struct2 -->
<g id="node7" class="node">
<title>3struct2</title>
<polygon fill="#f2f2f2" stroke="#000000" points="1705.9854,-647.3 1705.9854,-730.5 1830.4588,-730.5 1830.4588,-647.3 1705.9854,-647.3"/>
<text text-anchor="middle" x="1768.2221" y="-713.9" font-family="Times,serif" font-size="14.00" fill="#000000">&lt;&lt;struct&gt;&gt;</text>
<text text-anchor="middle" x="1768.2221" y="-697.1" font-family="Times,serif" font-size="14.00" fill="#000000">Checkpoint</text>
<polyline fill="none" stroke="#000000" points="1705.9854,-688.9 1830.4588,-688.9 "/>
<text text-anchor="start" x="1713.9854" y="-672.3" font-family="Times,serif" font-size="14.00" fill="#000000">coordo: Coordinate</text>
<text text-anchor="start" x="1713.9854" y="-655.5" font-family="Times,serif" font-size="14.00" fill="#000000">time: uint256</text>
</g>
<!-- 3struct2&#45;&gt;3 -->
<g id="edge3" class="edge">
<title>3struct2&#45;&gt;3</title>
<path fill="none" stroke="#000000" d="M1781.1966,-730.5236C1786.7993,-748.4976 1793.6968,-770.6256 1800.8151,-793.4618"/>
<polygon fill="#000000" stroke="#000000" points="1800.8656,-793.624 1806.4699,-798.1618 1804.4367,-805.0803 1798.8323,-800.5425 1800.8656,-793.624"/>
</g>
<!-- 3struct3 -->
<g id="node8" class="node">
<title>3struct3</title>
<polygon fill="#f2f2f2" stroke="#000000" points="1848.1572,-638.9 1848.1572,-738.9 1984.287,-738.9 1984.287,-638.9 1848.1572,-638.9"/>
<text text-anchor="middle" x="1916.2221" y="-722.3" font-family="Times,serif" font-size="14.00" fill="#000000">&lt;&lt;struct&gt;&gt;</text>
<text text-anchor="middle" x="1916.2221" y="-705.5" font-family="Times,serif" font-size="14.00" fill="#000000">AirRisk</text>
<polyline fill="none" stroke="#000000" points="1848.1572,-697.3 1984.287,-697.3 "/>
<text text-anchor="start" x="1856.1572" y="-680.7" font-family="Times,serif" font-size="14.00" fill="#000000">validated: bool</text>
<text text-anchor="start" x="1856.1572" y="-663.9" font-family="Times,serif" font-size="14.00" fill="#000000">name: string</text>
<text text-anchor="start" x="1856.1572" y="-647.1" font-family="Times,serif" font-size="14.00" fill="#000000">arType: AirRiskType</text>
</g>
<!-- 3struct3&#45;&gt;3 -->
<g id="edge4" class="edge">
<title>3struct3&#45;&gt;3</title>
<path fill="none" stroke="#000000" d="M1900.619,-738.9563C1895.5501,-755.218 1889.6649,-774.0984 1883.6208,-793.4884"/>
<polygon fill="#000000" stroke="#000000" points="1883.6199,-793.4916 1885.6531,-800.4101 1880.0488,-804.9479 1878.0156,-798.0293 1883.6199,-793.4916"/>
</g>
<!-- 3enum0 -->
<g id="node9" class="node">
<title>3enum0</title>
<polygon fill="#f2f2f2" stroke="#000000" points="2001.9707,-622.1 2001.9707,-755.7 2084.4735,-755.7 2084.4735,-622.1 2001.9707,-622.1"/>
<text text-anchor="middle" x="2043.2221" y="-739.1" font-family="Times,serif" font-size="14.00" fill="#000000">&lt;&lt;enum&gt;&gt;</text>
<text text-anchor="middle" x="2043.2221" y="-722.3" font-family="Times,serif" font-size="14.00" fill="#000000">FlightState</text>
<polyline fill="none" stroke="#000000" points="2001.9707,-714.1 2084.4735,-714.1 "/>
<text text-anchor="start" x="2009.9707" y="-697.5" font-family="Times,serif" font-size="14.00" fill="#000000">PreFlight: 0</text>
<text text-anchor="start" x="2009.9707" y="-680.7" font-family="Times,serif" font-size="14.00" fill="#000000">Flying: 1</text>
<text text-anchor="start" x="2009.9707" y="-663.9" font-family="Times,serif" font-size="14.00" fill="#000000">Pause: 2</text>
<text text-anchor="start" x="2009.9707" y="-647.1" font-family="Times,serif" font-size="14.00" fill="#000000">Aborted: 3</text>
<text text-anchor="start" x="2009.9707" y="-630.3" font-family="Times,serif" font-size="14.00" fill="#000000">Ended: 4</text>
</g>
<!-- 3enum0&#45;&gt;3 -->
<g id="edge5" class="edge">
<title>3enum0&#45;&gt;3</title>
<path fill="none" stroke="#000000" d="M2002.7503,-755.7057C1999.6261,-760.1397 1996.4351,-764.4771 1993.2221,-768.6 1986.2184,-777.5871 1978.7776,-786.6379 1971.099,-795.6135"/>
<polygon fill="#000000" stroke="#000000" points="1970.8796,-795.8666 1969.9719,-803.0204 1963.0193,-804.934 1963.927,-797.7802 1970.8796,-795.8666"/>
</g>
<!-- 3enum1 -->
<g id="node10" class="node">
<title>3enum1</title>
<polygon fill="#f2f2f2" stroke="#000000" points="2102.538,-638.9 2102.538,-738.9 2181.9062,-738.9 2181.9062,-638.9 2102.538,-638.9"/>
<text text-anchor="middle" x="2142.2221" y="-722.3" font-family="Times,serif" font-size="14.00" fill="#000000">&lt;&lt;enum&gt;&gt;</text>
<text text-anchor="middle" x="2142.2221" y="-705.5" font-family="Times,serif" font-size="14.00" fill="#000000">RiskType</text>
<polyline fill="none" stroke="#000000" points="2102.538,-697.3 2181.9062,-697.3 "/>
<text text-anchor="start" x="2110.538" y="-680.7" font-family="Times,serif" font-size="14.00" fill="#000000">Engine: 0</text>
<text text-anchor="start" x="2110.538" y="-663.9" font-family="Times,serif" font-size="14.00" fill="#000000">Gps: 1</text>
<text text-anchor="start" x="2110.538" y="-647.1" font-family="Times,serif" font-size="14.00" fill="#000000">Telecom: 2</text>
</g>
<!-- 3enum1&#45;&gt;3 -->
<g id="edge6" class="edge">
<title>3enum1&#45;&gt;3</title>
<path fill="none" stroke="#000000" d="M2116.2302,-739.1052C2109.5492,-749.5195 2101.7941,-759.9442 2093.2221,-768.6 2083.3909,-778.5273 2072.8221,-788.1225 2061.7826,-797.3446"/>
<polygon fill="#000000" stroke="#000000" points="2061.6994,-797.4125 2059.582,-804.3057 2052.4046,-805.0024 2054.522,-798.1091 2061.6994,-797.4125"/>
</g>
<!-- 3enum2 -->
<g id="node11" class="node">
<title>3enum2</title>
<polygon fill="#f2f2f2" stroke="#000000" points="2200.153,-647.3 2200.153,-730.5 2294.2912,-730.5 2294.2912,-647.3 2200.153,-647.3"/>
<text text-anchor="middle" x="2247.2221" y="-713.9" font-family="Times,serif" font-size="14.00" fill="#000000">&lt;&lt;enum&gt;&gt;</text>
<text text-anchor="middle" x="2247.2221" y="-697.1" font-family="Times,serif" font-size="14.00" fill="#000000">AirRiskType</text>
<polyline fill="none" stroke="#000000" points="2200.153,-688.9 2294.2912,-688.9 "/>
<text text-anchor="start" x="2208.153" y="-672.3" font-family="Times,serif" font-size="14.00" fill="#000000">Aerodrome: 0</text>
<text text-anchor="start" x="2208.153" y="-655.5" font-family="Times,serif" font-size="14.00" fill="#000000">Chu: 1</text>
</g>
<!-- 3enum2&#45;&gt;3 -->
<g id="edge7" class="edge">
<title>3enum2&#45;&gt;3</title>
<path fill="none" stroke="#000000" d="M2223.8736,-730.8403C2214.9596,-744.1659 2203.8592,-758.1414 2191.2221,-768.6 2157.7915,-796.2676 2118.7229,-820.0778 2079.0638,-840.1991"/>
<polygon fill="#000000" stroke="#000000" points="2078.8847,-840.2883 2075.2987,-846.5446 2068.1445,-845.6406 2071.7305,-839.3844 2078.8847,-840.2883"/>
</g>
<!-- 4 -->
<g id="node12" class="node">
<title>4</title>
<polygon fill="#f2f2f2" stroke="#000000" points="872.0255,-313.5 872.0255,-572.7 1704.4187,-572.7 1704.4187,-313.5 872.0255,-313.5"/>
<text text-anchor="middle" x="1288.2221" y="-556.1" font-family="Times,serif" font-size="14.00" fill="#000000">DroneFlightFactory</text>
<polyline fill="none" stroke="#000000" points="872.0255,-547.9 1704.4187,-547.9 "/>
<text text-anchor="start" x="880.0255" y="-531.3" font-family="Times,serif" font-size="14.00" fill="#000000">Private:</text>
<text text-anchor="start" x="880.0255" y="-514.5" font-family="Times,serif" font-size="14.00" fill="#000000"> &#160;&#160;accessControl: IAccessControl</text>
<text text-anchor="start" x="880.0255" y="-497.7" font-family="Times,serif" font-size="14.00" fill="#000000">Public:</text>
<text text-anchor="start" x="880.0255" y="-480.9" font-family="Times,serif" font-size="14.00" fill="#000000"> &#160;&#160;deployedContracts: address[]</text>
<polyline fill="none" stroke="#000000" points="872.0255,-472.7 1704.4187,-472.7 "/>
<text text-anchor="start" x="880.0255" y="-456.1" font-family="Times,serif" font-size="14.00" fill="#000000">Internal:</text>
<text text-anchor="start" x="880.0255" y="-439.3" font-family="Times,serif" font-size="14.00" fill="#000000"> &#160;&#160;&#160;_newDroneDelivery(_deliveryManager: address, _deliveryId: uint256, _conopsManager: address, data: StarwingsDataLib.FlightData): address</text>
<text text-anchor="start" x="880.0255" y="-422.5" font-family="Times,serif" font-size="14.00" fill="#000000">External:</text>
<text text-anchor="start" x="880.0255" y="-405.7" font-family="Times,serif" font-size="14.00" fill="#000000"> &#160;&#160;&#160;newDroneFlight(_type: uint8): (newContract: address)</text>
<text text-anchor="start" x="880.0255" y="-388.9" font-family="Times,serif" font-size="14.00" fill="#000000"> &#160;&#160;&#160;getDeployedContracts(): address[]</text>
<text text-anchor="start" x="880.0255" y="-372.1" font-family="Times,serif" font-size="14.00" fill="#000000">Public:</text>
<text text-anchor="start" x="880.0255" y="-355.3" font-family="Times,serif" font-size="14.00" fill="#000000"> &#160;&#160;&#160;&lt;&lt;modifier&gt;&gt; onlyRole(_role: bytes32)</text>
<text text-anchor="start" x="880.0255" y="-338.5" font-family="Times,serif" font-size="14.00" fill="#000000"> &#160;&#160;&#160;&lt;&lt;modifier&gt;&gt; isAllowedTypeFlight(_type: uint8)</text>
<text text-anchor="start" x="880.0255" y="-321.7" font-family="Times,serif" font-size="14.00" fill="#000000"> &#160;&#160;&#160;constructor(accessControlAddress: address)</text>
</g>
<!-- 4&#45;&gt;2 -->
<g id="edge23" class="edge">
<title>4&#45;&gt;2</title>
<path fill="none" stroke="#000000" stroke-dasharray="5,2" d="M1019.5621,-572.838C996.8737,-583.7944 974.3358,-594.6781 952.6727,-605.1394"/>
<polygon fill="#000000" stroke="#000000" points="950.9272,-602.0955 943.4442,-609.5959 953.9712,-608.399 950.9272,-602.0955"/>
</g>
<!-- 8 -->
<g id="node23" class="node">
<title>8</title>
<polygon fill="#f2f2f2" stroke="#000000" points="1162.6095,-634.9 1162.6095,-742.9 1413.8347,-742.9 1413.8347,-634.9 1162.6095,-634.9"/>
<text text-anchor="middle" x="1288.2221" y="-726.3" font-family="Times,serif" font-size="14.00" fill="#000000">&lt;&lt;Interface&gt;&gt;</text>
<text text-anchor="middle" x="1288.2221" y="-709.5" font-family="Times,serif" font-size="14.00" fill="#000000">IDroneFlightFactory</text>
<polyline fill="none" stroke="#000000" points="1162.6095,-701.3 1413.8347,-701.3 "/>
<text text-anchor="middle" x="1288.2221" y="-684.7" font-family="Times,serif" font-size="14.00" fill="#000000"> </text>
<polyline fill="none" stroke="#000000" points="1162.6095,-676.5 1413.8347,-676.5 "/>
<text text-anchor="start" x="1170.6095" y="-659.9" font-family="Times,serif" font-size="14.00" fill="#000000">External:</text>
<text text-anchor="start" x="1170.6095" y="-643.1" font-family="Times,serif" font-size="14.00" fill="#000000"> &#160;&#160;&#160;&#160;newDroneFlight(_type: uint8): address</text>
</g>
<!-- 4&#45;&gt;8 -->
<g id="edge21" class="edge">
<title>4&#45;&gt;8</title>
<path fill="none" stroke="#000000" stroke-dasharray="5,2" d="M1288.2221,-572.838C1288.2221,-583.5735 1288.2221,-594.2392 1288.2221,-604.5061"/>
<polygon fill="none" stroke="#000000" points="1277.7222,-604.6497 1288.2221,-634.6497 1298.7222,-604.6497 1277.7222,-604.6497"/>
</g>
<!-- 4&#45;&gt;9 -->
<g id="edge22" class="edge">
<title>4&#45;&gt;9</title>
<path fill="none" stroke="#000000" stroke-dasharray="5,2" d="M1704.6745,-554.8777C1737.8746,-561.7764 1771.0147,-568.0136 1803.2221,-573.2 1858.213,-582.0552 2263.552,-570.1013 2303.2221,-609.2 2372.9312,-677.905 2313.663,-954.084 2341.2221,-1048 2346.3306,-1065.4088 2353.4538,-1083.1167 2361.4007,-1100.0733"/>
<polygon fill="#000000" stroke="#000000" points="2358.4031,-1101.9159 2365.8928,-1109.4096 2364.711,-1098.8809 2358.4031,-1101.9159"/>
</g>
<!-- 4enum0 -->
<g id="node13" class="node">
<title>4enum0</title>
<polygon fill="#f2f2f2" stroke="#000000" points="1248.8803,-88.5 1248.8803,-188.5 1327.5639,-188.5 1327.5639,-88.5 1248.8803,-88.5"/>
<text text-anchor="middle" x="1288.2221" y="-171.9" font-family="Times,serif" font-size="14.00" fill="#000000">&lt;&lt;enum&gt;&gt;</text>
<text text-anchor="middle" x="1288.2221" y="-155.1" font-family="Times,serif" font-size="14.00" fill="#000000">FlightType</text>
<polyline fill="none" stroke="#000000" points="1248.8803,-146.9 1327.5639,-146.9 "/>
<text text-anchor="start" x="1256.8803" y="-130.3" font-family="Times,serif" font-size="14.00" fill="#000000">delivery: 0</text>
<text text-anchor="start" x="1256.8803" y="-113.5" font-family="Times,serif" font-size="14.00" fill="#000000">photo: 1</text>
<text text-anchor="start" x="1256.8803" y="-96.7" font-family="Times,serif" font-size="14.00" fill="#000000">taxi: 2</text>
</g>
<!-- 4enum0&#45;&gt;4 -->
<g id="edge8" class="edge">
<title>4enum0&#45;&gt;4</title>
<path fill="none" stroke="#000000" d="M1288.2221,-188.7985C1288.2221,-219.6446 1288.2221,-260.822 1288.2221,-301.0425"/>
<polygon fill="#000000" stroke="#000000" points="1288.2222,-301.1975 1292.2221,-307.1975 1288.2221,-313.1975 1284.2221,-307.1974 1288.2222,-301.1975"/>
</g>
<!-- 5 -->
<g id="node14" class="node">
<title>5</title>
<polygon fill="#f2f2f2" stroke="#000000" points="2366.0797,-76.1 2366.0797,-200.9 2678.3645,-200.9 2678.3645,-76.1 2366.0797,-76.1"/>
<text text-anchor="middle" x="2522.2221" y="-184.3" font-family="Times,serif" font-size="14.00" fill="#000000">SWAccessControl</text>
<polyline fill="none" stroke="#000000" points="2366.0797,-176.1 2678.3645,-176.1 "/>
<text text-anchor="middle" x="2522.2221" y="-159.5" font-family="Times,serif" font-size="14.00" fill="#000000"> </text>
<polyline fill="none" stroke="#000000" points="2366.0797,-151.3 2678.3645,-151.3 "/>
<text text-anchor="start" x="2374.0797" y="-134.7" font-family="Times,serif" font-size="14.00" fill="#000000">External:</text>
<text text-anchor="start" x="2374.0797" y="-117.9" font-family="Times,serif" font-size="14.00" fill="#000000"> &#160;&#160;&#160;setRoleAdmin(role: bytes32, adminRole: bytes32)</text>
<text text-anchor="start" x="2374.0797" y="-101.1" font-family="Times,serif" font-size="14.00" fill="#000000">Public:</text>
<text text-anchor="start" x="2374.0797" y="-84.3" font-family="Times,serif" font-size="14.00" fill="#000000"> &#160;&#160;&#160;constructor()</text>
</g>
<!-- 6struct0 -->
<g id="node16" class="node">
<title>6struct0</title>
<polygon fill="#f2f2f2" stroke="#000000" points="1174.0969,-884.7 1174.0969,-967.9 1320.3473,-967.9 1320.3473,-884.7 1174.0969,-884.7"/>
<text text-anchor="middle" x="1247.2221" y="-951.3" font-family="Times,serif" font-size="14.00" fill="#000000">&lt;&lt;struct&gt;&gt;</text>
<text text-anchor="middle" x="1247.2221" y="-934.5" font-family="Times,serif" font-size="14.00" fill="#000000">AirRisk</text>
<polyline fill="none" stroke="#000000" points="1174.0969,-926.3 1320.3473,-926.3 "/>
<text text-anchor="start" x="1182.0969" y="-909.7" font-family="Times,serif" font-size="14.00" fill="#000000">name: string</text>
<text text-anchor="start" x="1182.0969" y="-892.9" font-family="Times,serif" font-size="14.00" fill="#000000">riskType: AirRiskType</text>
</g>
<!-- 6struct0&#45;&gt;6 -->
<g id="edge9" class="edge">
<title>6struct0&#45;&gt;6</title>
<path fill="none" stroke="#000000" d="M1271.3254,-968.129C1287.6026,-996.3765 1310.062,-1035.3527 1332.0848,-1073.571"/>
<polygon fill="#000000" stroke="#000000" points="1332.2879,-1073.9235 1338.7493,-1077.1251 1338.2792,-1084.3209 1331.8178,-1081.1193 1332.2879,-1073.9235"/>
</g>
<!-- 6struct1 -->
<g id="node17" class="node">
<title>6struct1</title>
<polygon fill="#f2f2f2" stroke="#000000" points="1338.5934,-825.9 1338.5934,-1026.7 1477.8508,-1026.7 1477.8508,-825.9 1338.5934,-825.9"/>
<text text-anchor="middle" x="1408.2221" y="-1010.1" font-family="Times,serif" font-size="14.00" fill="#000000">&lt;&lt;struct&gt;&gt;</text>
<text text-anchor="middle" x="1408.2221" y="-993.3" font-family="Times,serif" font-size="14.00" fill="#000000">SimpleConops</text>
<polyline fill="none" stroke="#000000" points="1338.5934,-985.1 1477.8508,-985.1 "/>
<text text-anchor="start" x="1346.5934" y="-968.5" font-family="Times,serif" font-size="14.00" fill="#000000">activated: bool</text>
<text text-anchor="start" x="1346.5934" y="-951.7" font-family="Times,serif" font-size="14.00" fill="#000000">name: string</text>
<text text-anchor="start" x="1346.5934" y="-934.9" font-family="Times,serif" font-size="14.00" fill="#000000">startingPoint: string</text>
<text text-anchor="start" x="1346.5934" y="-918.1" font-family="Times,serif" font-size="14.00" fill="#000000">endPoint: string</text>
<text text-anchor="start" x="1346.5934" y="-901.3" font-family="Times,serif" font-size="14.00" fill="#000000">crossRoad: string</text>
<text text-anchor="start" x="1346.5934" y="-884.5" font-family="Times,serif" font-size="14.00" fill="#000000">exclusionZone: string</text>
<text text-anchor="start" x="1346.5934" y="-867.7" font-family="Times,serif" font-size="14.00" fill="#000000">grc: uint8</text>
<text text-anchor="start" x="1346.5934" y="-850.9" font-family="Times,serif" font-size="14.00" fill="#000000">arc: uint8</text>
<text text-anchor="start" x="1346.5934" y="-834.1" font-family="Times,serif" font-size="14.00" fill="#000000">airRiskList: AirRisk[]</text>
</g>
<!-- 6struct1&#45;&gt;6 -->
<g id="edge10" class="edge">
<title>6struct1&#45;&gt;6</title>
<path fill="none" stroke="#000000" d="M1408.2221,-1026.7751C1408.2221,-1041.4653 1408.2221,-1056.7852 1408.2221,-1072.0097"/>
<polygon fill="#000000" stroke="#000000" points="1408.2222,-1072.1852 1412.2221,-1078.1853 1408.2221,-1084.1852 1404.2221,-1078.1852 1408.2222,-1072.1852"/>
</g>
<!-- 6enum0 -->
<g id="node18" class="node">
<title>6enum0</title>
<polygon fill="#f2f2f2" stroke="#000000" points="1495.4805,-876.3 1495.4805,-976.3 1598.9637,-976.3 1598.9637,-876.3 1495.4805,-876.3"/>
<text text-anchor="middle" x="1547.2221" y="-959.7" font-family="Times,serif" font-size="14.00" fill="#000000">&lt;&lt;enum&gt;&gt;</text>
<text text-anchor="middle" x="1547.2221" y="-942.9" font-family="Times,serif" font-size="14.00" fill="#000000">AirRiskType</text>
<polyline fill="none" stroke="#000000" points="1495.4805,-934.7 1598.9637,-934.7 "/>
<text text-anchor="start" x="1503.4805" y="-918.1" font-family="Times,serif" font-size="14.00" fill="#000000">Aerodrome: 0</text>
<text text-anchor="start" x="1503.4805" y="-901.3" font-family="Times,serif" font-size="14.00" fill="#000000">CHU: 1</text>
<text text-anchor="start" x="1503.4805" y="-884.5" font-family="Times,serif" font-size="14.00" fill="#000000">MilitaryBase: 2</text>
</g>
<!-- 6enum0&#45;&gt;6 -->
<g id="edge11" class="edge">
<title>6enum0&#45;&gt;6</title>
<path fill="none" stroke="#000000" d="M1522.6265,-976.3687C1511.8005,-998.3602 1498.9116,-1024.4788 1487.2221,-1048 1483.1017,-1056.2909 1478.8527,-1064.823 1474.5629,-1073.4238"/>
<polygon fill="#000000" stroke="#000000" points="1474.4726,-1073.6049 1475.3723,-1080.7596 1469.1139,-1084.3419 1468.2142,-1077.1872 1474.4726,-1073.6049"/>
</g>
<!-- 7struct0 -->
<g id="node20" class="node">
<title>7struct0</title>
<polygon fill="#f2f2f2" stroke="#000000" points="1895.4072,-88.5 1895.4072,-188.5 2007.037,-188.5 2007.037,-88.5 1895.4072,-88.5"/>
<text text-anchor="middle" x="1951.2221" y="-171.9" font-family="Times,serif" font-size="14.00" fill="#000000">&lt;&lt;struct&gt;&gt;</text>
<text text-anchor="middle" x="1951.2221" y="-155.1" font-family="Times,serif" font-size="14.00" fill="#000000">CommercialData</text>
<polyline fill="none" stroke="#000000" points="1895.4072,-146.9 2007.037,-146.9 "/>
<text text-anchor="start" x="1903.4072" y="-130.3" font-family="Times,serif" font-size="14.00" fill="#000000">client: string</text>
<text text-anchor="start" x="1903.4072" y="-113.5" font-family="Times,serif" font-size="14.00" fill="#000000">price: uint256</text>
<text text-anchor="start" x="1903.4072" y="-96.7" font-family="Times,serif" font-size="14.00" fill="#000000">hubID: uint256</text>
</g>
<!-- 7struct0&#45;&gt;7 -->
<g id="edge12" class="edge">
<title>7struct0&#45;&gt;7</title>
<path fill="none" stroke="#000000" d="M1966.0838,-188.7985C1979.8519,-235.3959 2000.5861,-305.5697 2016.7884,-360.4056"/>
<polygon fill="#000000" stroke="#000000" points="2016.8768,-360.7051 2022.4131,-365.3257 2020.2772,-372.2132 2014.741,-367.5926 2016.8768,-360.7051"/>
</g>
<!-- 7struct1 -->
<g id="node21" class="node">
<title>7struct1</title>
<polygon fill="#f2f2f2" stroke="#000000" points="2025.458,-96.9 2025.458,-180.1 2236.9862,-180.1 2236.9862,-96.9 2025.458,-96.9"/>
<text text-anchor="middle" x="2131.2221" y="-163.5" font-family="Times,serif" font-size="14.00" fill="#000000">&lt;&lt;struct&gt;&gt;</text>
<text text-anchor="middle" x="2131.2221" y="-146.7" font-family="Times,serif" font-size="14.00" fill="#000000">Delivery</text>
<polyline fill="none" stroke="#000000" points="2025.458,-138.5 2236.9862,-138.5 "/>
<text text-anchor="start" x="2033.458" y="-121.9" font-family="Times,serif" font-size="14.00" fill="#000000">state: DeliveryState</text>
<text text-anchor="start" x="2033.458" y="-105.1" font-family="Times,serif" font-size="14.00" fill="#000000">commercialData: CommercialData</text>
</g>
<!-- 7struct1&#45;&gt;7 -->
<g id="edge13" class="edge">
<title>7struct1&#45;&gt;7</title>
<path fill="none" stroke="#000000" d="M2118.8967,-180.2147C2105.2498,-226.4017 2082.9045,-302.0284 2065.6757,-360.3381"/>
<polygon fill="#000000" stroke="#000000" points="2065.5926,-360.6196 2067.7285,-367.5071 2062.1922,-372.1278 2060.0564,-365.2402 2065.5926,-360.6196"/>
</g>
<!-- 7enum0 -->
<g id="node22" class="node">
<title>7enum0</title>
<polygon fill="#f2f2f2" stroke="#000000" points="2254.7368,-63.3 2254.7368,-213.7 2347.7074,-213.7 2347.7074,-63.3 2254.7368,-63.3"/>
<text text-anchor="middle" x="2301.2221" y="-197.1" font-family="Times,serif" font-size="14.00" fill="#000000">&lt;&lt;enum&gt;&gt;</text>
<text text-anchor="middle" x="2301.2221" y="-180.3" font-family="Times,serif" font-size="14.00" fill="#000000">DeliveryState</text>
<polyline fill="none" stroke="#000000" points="2254.7368,-172.1 2347.7074,-172.1 "/>
<text text-anchor="start" x="2262.7368" y="-155.5" font-family="Times,serif" font-size="14.00" fill="#000000">noInfo: 0</text>
<text text-anchor="start" x="2262.7368" y="-138.7" font-family="Times,serif" font-size="14.00" fill="#000000">registered: 1</text>
<text text-anchor="start" x="2262.7368" y="-121.9" font-family="Times,serif" font-size="14.00" fill="#000000">atHub: 2</text>
<text text-anchor="start" x="2262.7368" y="-105.1" font-family="Times,serif" font-size="14.00" fill="#000000">inDelivery: 3</text>
<text text-anchor="start" x="2262.7368" y="-88.3" font-family="Times,serif" font-size="14.00" fill="#000000">arrived: 4</text>
<text text-anchor="start" x="2262.7368" y="-71.5" font-family="Times,serif" font-size="14.00" fill="#000000">delivered: 5</text>
</g>
<!-- 7enum0&#45;&gt;7 -->
<g id="edge14" class="edge">
<title>7enum0&#45;&gt;7</title>
<path fill="none" stroke="#000000" d="M2279.2329,-214.0172C2270.9061,-235.5519 2260.0138,-258.2395 2246.2221,-277 2222.3101,-309.5268 2190.5656,-339.344 2159.2157,-364.4622"/>
<polygon fill="#000000" stroke="#000000" points="2158.937,-364.6816 2156.6968,-371.536 2149.5081,-372.1044 2151.7483,-365.2501 2158.937,-364.6816"/>
</g>
<!-- 9struct0 -->
<g id="node25" class="node">
<title>9struct0</title>
<polygon fill="#f2f2f2" stroke="#000000" points="2350.3136,-817.5 2350.3136,-1035.1 2498.1306,-1035.1 2498.1306,-817.5 2350.3136,-817.5"/>
<text text-anchor="middle" x="2424.2221" y="-1018.5" font-family="Times,serif" font-size="14.00" fill="#000000">&lt;&lt;struct&gt;&gt;</text>
<text text-anchor="middle" x="2424.2221" y="-1001.7" font-family="Times,serif" font-size="14.00" fill="#000000">FlightData</text>
<polyline fill="none" stroke="#000000" points="2350.3136,-993.5 2498.1306,-993.5 "/>
<text text-anchor="start" x="2358.3136" y="-976.9" font-family="Times,serif" font-size="14.00" fill="#000000">piloteAddr: address</text>
<text text-anchor="start" x="2358.3136" y="-960.1" font-family="Times,serif" font-size="14.00" fill="#000000">droneAddr: address</text>
<text text-anchor="start" x="2358.3136" y="-943.3" font-family="Times,serif" font-size="14.00" fill="#000000">conopsId: uint256</text>
<text text-anchor="start" x="2358.3136" y="-926.5" font-family="Times,serif" font-size="14.00" fill="#000000">flightDatetime: uint256</text>
<text text-anchor="start" x="2358.3136" y="-909.7" font-family="Times,serif" font-size="14.00" fill="#000000">flightDuration: uint256</text>
<text text-anchor="start" x="2358.3136" y="-892.9" font-family="Times,serif" font-size="14.00" fill="#000000">pilotName: string</text>
<text text-anchor="start" x="2358.3136" y="-876.1" font-family="Times,serif" font-size="14.00" fill="#000000">droneType: string</text>
<text text-anchor="start" x="2358.3136" y="-859.3" font-family="Times,serif" font-size="14.00" fill="#000000">droneId: string</text>
<text text-anchor="start" x="2358.3136" y="-842.5" font-family="Times,serif" font-size="14.00" fill="#000000">depart: string</text>
<text text-anchor="start" x="2358.3136" y="-825.7" font-family="Times,serif" font-size="14.00" fill="#000000">destination: string</text>
</g>
<!-- 9struct0&#45;&gt;9 -->
<g id="edge15" class="edge">
<title>9struct0&#45;&gt;9</title>
<path fill="none" stroke="#000000" d="M2424.2221,-1035.1234C2424.2221,-1055.5214 2424.2221,-1076.8438 2424.2221,-1097.2311"/>
<polygon fill="#000000" stroke="#000000" points="2424.2222,-1097.4486 2428.2221,-1103.4486 2424.2221,-1109.4486 2420.2221,-1103.4486 2424.2222,-1097.4486"/>
</g>
</g>
</svg>
